<svg width="167" height="32" viewBox="0 0 167 32" fill="none" xmlns="http://www.w3.org/2000/svg">
<path d="M5 17H29V19C29 25.6274 23.6274 31 17 31C10.3726 31 5 25.6274 5 19V17Z" fill="#C2E66E"/>
<path d="M5 1H29V3C29 9.62742 23.6274 15 17 15C10.3726 15 5 9.62742 5 3V1Z" fill="#FFCB65"/>
<path d="M51.32 23H48.52L42.18 13.42V23H39.38V9.02H42.18L48.52 18.62V9.02H51.32V23ZM64.547 11.92V23H61.727V21.6C61.367 22.08 60.8937 22.46 60.307 22.74C59.7337 23.0067 59.107 23.14 58.427 23.14C57.5604 23.14 56.7937 22.96 56.127 22.6C55.4604 22.2267 54.9337 21.6867 54.547 20.98C54.1737 20.26 53.987 19.4067 53.987 18.42V11.92H56.787V18.02C56.787 18.9 57.007 19.58 57.447 20.06C57.887 20.5267 58.487 20.76 59.247 20.76C60.0204 20.76 60.627 20.5267 61.067 20.06C61.507 19.58 61.727 18.9 61.727 18.02V11.92H64.547ZM70.5697 14.22V19.58C70.5697 19.9533 70.6564 20.2267 70.8297 20.4C71.0164 20.56 71.323 20.64 71.7497 20.64H73.0497V23H71.2897C68.9297 23 67.7497 21.8533 67.7497 19.56V14.22H66.4297V11.92H67.7497V9.18H70.5697V11.92H73.0497V14.22H70.5697ZM77.8636 13.64C78.2236 13.0533 78.6903 12.5933 79.2636 12.26C79.8503 11.9267 80.5169 11.76 81.2636 11.76V14.7H80.5236C79.6436 14.7 78.9769 14.9067 78.5236 15.32C78.0836 15.7333 77.8636 16.4533 77.8636 17.48V23H75.0636V11.92H77.8636V13.64ZM84.5695 10.6C84.0762 10.6 83.6629 10.4467 83.3295 10.14C83.0095 9.82 82.8495 9.42667 82.8495 8.96C82.8495 8.49333 83.0095 8.10667 83.3295 7.8C83.6629 7.48 84.0762 7.32 84.5695 7.32C85.0629 7.32 85.4695 7.48 85.7895 7.8C86.1229 8.10667 86.2895 8.49333 86.2895 8.96C86.2895 9.42667 86.1229 9.82 85.7895 10.14C85.4695 10.4467 85.0629 10.6 84.5695 10.6ZM85.9495 11.92V23H83.1495V11.92H85.9495ZM93.0559 11.74C93.8826 11.74 94.6093 11.9067 95.2359 12.24C95.8626 12.56 96.3559 12.98 96.7159 13.5V11.92H99.5359V23.08C99.5359 24.1067 99.3293 25.02 98.9159 25.82C98.5026 26.6333 97.8826 27.2733 97.0559 27.74C96.2293 28.22 95.2293 28.46 94.0559 28.46C92.4826 28.46 91.1893 28.0933 90.1759 27.36C89.1759 26.6267 88.6093 25.6267 88.4759 24.36H91.2559C91.4026 24.8667 91.7159 25.2667 92.1959 25.56C92.6893 25.8667 93.2826 26.02 93.9759 26.02C94.7893 26.02 95.4493 25.7733 95.9559 25.28C96.4626 24.8 96.7159 24.0667 96.7159 23.08V21.36C96.3559 21.88 95.8559 22.3133 95.2159 22.66C94.5893 23.0067 93.8693 23.18 93.0559 23.18C92.1226 23.18 91.2693 22.94 90.4959 22.46C89.7226 21.98 89.1093 21.3067 88.6559 20.44C88.2159 19.56 87.9959 18.5533 87.9959 17.42C87.9959 16.3 88.2159 15.3067 88.6559 14.44C89.1093 13.5733 89.7159 12.9067 90.4759 12.44C91.2493 11.9733 92.1093 11.74 93.0559 11.74ZM96.7159 17.46C96.7159 16.78 96.5826 16.2 96.3159 15.72C96.0493 15.2267 95.6893 14.8533 95.2359 14.6C94.7826 14.3333 94.2959 14.2 93.7759 14.2C93.2559 14.2 92.7759 14.3267 92.3359 14.58C91.8959 14.8333 91.5359 15.2067 91.2559 15.7C90.9893 16.18 90.8559 16.7533 90.8559 17.42C90.8559 18.0867 90.9893 18.6733 91.2559 19.18C91.5359 19.6733 91.8959 20.0533 92.3359 20.32C92.7893 20.5867 93.2693 20.72 93.7759 20.72C94.2959 20.72 94.7826 20.5933 95.2359 20.34C95.6893 20.0733 96.0493 19.7 96.3159 19.22C96.5826 18.7267 96.7159 18.14 96.7159 17.46ZM107.191 23.18C106.124 23.18 105.164 22.9467 104.311 22.48C103.457 22 102.784 21.3267 102.291 20.46C101.811 19.5933 101.571 18.5933 101.571 17.46C101.571 16.3267 101.817 15.3267 102.311 14.46C102.817 13.5933 103.504 12.9267 104.371 12.46C105.237 11.98 106.204 11.74 107.271 11.74C108.337 11.74 109.304 11.98 110.171 12.46C111.037 12.9267 111.717 13.5933 112.211 14.46C112.717 15.3267 112.971 16.3267 112.971 17.46C112.971 18.5933 112.711 19.5933 112.191 20.46C111.684 21.3267 110.991 22 110.111 22.48C109.244 22.9467 108.271 23.18 107.191 23.18ZM107.191 20.74C107.697 20.74 108.171 20.62 108.611 20.38C109.064 20.1267 109.424 19.7533 109.691 19.26C109.957 18.7667 110.091 18.1667 110.091 17.46C110.091 16.4067 109.811 15.6 109.251 15.04C108.704 14.4667 108.031 14.18 107.231 14.18C106.431 14.18 105.757 14.4667 105.211 15.04C104.677 15.6 104.411 16.4067 104.411 17.46C104.411 18.5133 104.671 19.3267 105.191 19.9C105.724 20.46 106.391 20.74 107.191 20.74Z" fill="#2A2B2A"/>
</svg>
